<svg width="34" height="24" viewBox="0 0 34 24" fill="none" xmlns="http://www.w3.org/2000/svg">
<path fill-rule="evenodd" clip-rule="evenodd" d="M24.5093 0C25.6542 0 26.6011 0.651239 27.2943 1.33549C28.0161 2.04525 28.6778 2.9996 29.266 4.05148C30.447 6.16126 31.4749 8.91777 32.1546 11.6413C32.8298 14.3438 33.2035 17.1663 32.9649 19.3856C32.7248 21.6139 31.5769 24.0088 29.011 24.0088C26.7961 24.0088 25.0315 22.8684 23.588 21.7115L23.0613 21.2778L22.323 20.6551L21.6568 20.1029C20.1277 18.8649 18.7697 18.0066 17.0065 18.0066C15.2434 18.0066 13.8854 18.8649 12.3563 20.1029L11.6901 20.6551L10.9518 21.2778L10.4266 21.7115C8.98011 22.8684 7.21546 24.0088 5.00215 24.0088C2.43471 24.0088 1.28679 21.6139 1.0482 19.3856C0.811113 17.1648 1.18325 14.3438 1.8585 11.6413C2.53825 8.91777 3.56612 6.16126 4.74706 4.04998C5.33527 2.9996 5.99701 2.04525 6.71878 1.33399C7.41203 0.651239 8.35888 0 9.5038 0C10.2766 0 11.0314 0.184568 11.7741 0.405148L12.6625 0.676748C12.8105 0.722765 12.9581 0.766281 13.1051 0.807296C14.4031 1.17943 15.7311 1.50055 17.0065 1.50055C18.282 1.50055 19.61 1.17943 20.908 0.807296L22.236 0.406649C22.9832 0.186068 23.744 0 24.5093 0ZM24.5093 3.0011C23.9346 3.0011 23.3344 3.17516 22.7522 3.36573L22.0649 3.59232L21.7333 3.69435C20.4053 4.07249 18.7322 4.50165 17.0065 4.50165C15.2809 4.50165 13.6078 4.07249 12.2798 3.69435L11.9497 3.59232L11.2609 3.36573C10.6787 3.17366 10.0785 3.0011 9.5038 3.0011C8.87657 3.11814 8.31386 3.87892 7.88921 4.58418L7.65212 4.99683L7.36702 5.51602C6.34364 7.34369 5.4013 9.83761 4.77106 12.369C4.17835 14.7339 3.89024 16.9997 3.99978 18.6863L4.0388 19.126L4.06881 19.3901L4.11382 19.7022C4.21736 20.3039 4.44094 21.0077 5.00215 21.0077C6.2206 21.0077 7.23797 20.4015 8.50293 19.3961L9.10765 18.9039L10.2481 17.9496L10.7643 17.5294C12.3608 16.2645 14.3581 15.0055 17.0065 15.0055C19.655 15.0055 21.6523 16.266 23.2488 17.5294L23.7665 17.9496L24.9069 18.9039L25.5102 19.3961C26.7751 20.4015 27.791 21.0077 29.011 21.0077C29.5211 21.0077 29.7522 20.427 29.8678 19.8688L29.9248 19.5417L29.9803 19.066C30.1649 17.3464 29.8798 14.917 29.2435 12.369C28.6643 10.0492 27.824 7.75934 26.8997 5.98569L26.361 4.99533L26.1239 4.58568C25.6992 3.87892 25.1365 3.11814 24.5093 3.0011ZM11.7546 6.0022C12.7496 6.0022 13.7037 6.39743 14.4072 7.10095C15.1108 7.80447 15.506 8.75865 15.506 9.75358C15.506 10.7485 15.1108 11.7027 14.4072 12.4062C13.7037 13.1097 12.7496 13.505 11.7546 13.505C10.7597 13.505 9.80552 13.1097 9.102 12.4062C8.39848 11.7027 8.00325 10.7485 8.00325 9.75358C8.00325 8.75865 8.39848 7.80447 9.102 7.10095C9.80552 6.39743 10.7597 6.0022 11.7546 6.0022ZM22.2585 6.0022C22.626 6.00225 22.9807 6.13718 23.2554 6.38141C23.5301 6.62564 23.7055 6.96218 23.7485 7.32719L23.759 7.50275V8.25303H24.5093C24.8918 8.25345 25.2596 8.3999 25.5377 8.66245C25.8158 8.925 25.9832 9.28383 26.0056 9.66564C26.028 10.0474 25.9038 10.4234 25.6583 10.7167C25.4128 11.01 25.0646 11.1984 24.6849 11.2436L24.5093 11.2541H23.759V12.0044C23.7586 12.3869 23.6122 12.7547 23.3496 13.0328C23.0871 13.3109 22.7282 13.4783 22.3464 13.5007C21.9646 13.5231 21.5887 13.3989 21.2954 13.1534C21.0021 12.9079 20.8136 12.5597 20.7684 12.18L20.7579 12.0044V11.2541H20.0077C19.6252 11.2537 19.2573 11.1073 18.9792 10.8447C18.7011 10.5822 18.5338 10.2233 18.5113 9.84152C18.4889 9.45971 18.6131 9.08376 18.8586 8.79047C19.1041 8.49719 19.4523 8.3087 19.8321 8.26353L20.0077 8.25303H20.7579V7.50275C20.7579 7.10478 20.916 6.72311 21.1974 6.4417C21.4788 6.16029 21.8605 6.0022 22.2585 6.0022ZM11.7546 9.0033C11.5556 9.0033 11.3648 9.08235 11.2241 9.22305C11.0834 9.36375 11.0043 9.55459 11.0043 9.75358C11.0043 9.95256 11.0834 10.1434 11.2241 10.2841C11.3648 10.4248 11.5556 10.5038 11.7546 10.5038C11.9536 10.5038 12.1444 10.4248 12.2852 10.2841C12.4259 10.1434 12.5049 9.95256 12.5049 9.75358C12.5049 9.55459 12.4259 9.36375 12.2852 9.22305C12.1444 9.08235 11.9536 9.0033 11.7546 9.0033Z" fill="black"/>
</svg>
