<svg width="32" height="33" viewBox="0 0 32 33" fill="none" xmlns="http://www.w3.org/2000/svg">
<path d="M6.98767 13.6129C7.10471 14.8508 6.44409 15.9245 5.52126 15.9988C4.59842 16.0719 3.75436 15.1288 3.63844 13.8909C3.5214 12.6518 4.18201 11.5793 5.10485 11.505C6.02769 11.4228 6.87175 12.3648 6.98767 13.6129ZM12.2749 27.2518C13.1977 27.1786 13.8572 26.1061 13.7401 24.867C13.6242 23.6189 12.779 22.677 11.8573 22.7602C10.9345 22.8334 10.2739 23.9059 10.3909 25.145C10.5068 26.3829 11.3531 27.326 12.2749 27.2518ZM26.9052 11.505C27.8281 11.5781 28.4876 12.6507 28.3705 13.8897C28.2546 15.1378 27.4094 16.0798 26.4866 15.9976C25.5637 15.9234 24.9042 14.8508 25.0213 13.6118C25.1372 12.3738 25.9824 11.4307 26.9052 11.505ZM24.9943 19.5168C25.1113 18.2788 24.4507 17.2052 23.529 17.1309C22.6061 17.0578 21.7621 18.0009 21.645 19.2388C21.528 20.4768 22.1886 21.5504 23.1103 21.6247C24.0332 21.7069 24.8772 20.7649 24.9943 19.5168ZM20.1527 22.7591C21.0756 22.8323 21.7351 23.9048 21.618 25.1439C21.5021 26.3919 20.6569 27.3339 19.7341 27.2506C18.8113 27.1775 18.1518 26.105 18.2688 24.8659C18.3847 23.6279 19.2299 22.6848 20.1527 22.7591Z" fill="black"/>
<path d="M13.6233 0.757183L3.05678 5.31848C2.80994 5.42952 2.58861 5.57582 2.39279 5.75739C1.78103 5.90756 1.23737 6.25868 0.848862 6.75452C0.460353 7.25036 0.249476 7.86223 0.250001 8.49214V24.4392C0.250079 25.0951 0.441161 25.7367 0.799905 26.2857C1.15865 26.8347 1.66952 27.2673 2.27012 27.5307L13.1877 32.3171C13.522 32.4634 13.863 32.54 14.2006 32.5535C15.3635 32.9973 16.6492 32.9973 17.8121 32.5535C18.1474 32.54 18.4896 32.4634 18.8238 32.3171L29.7403 27.5307C30.3413 27.2674 30.8525 26.8347 31.2115 26.2854C31.5704 25.7362 31.7616 25.0943 31.7616 24.4381V8.49102C31.7619 7.88561 31.5669 7.29625 31.2056 6.81047C30.8443 6.32469 30.336 5.9684 29.7561 5.79453C29.5589 5.5944 29.3261 5.43293 29.0696 5.31848L18.3894 0.757183C17.6394 0.422805 16.8275 0.25 16.0063 0.25C15.1852 0.25 14.3733 0.422805 13.6233 0.757183ZM14.8804 14.6662V29.7422C14.8801 29.8355 14.8567 29.9273 14.8122 30.0093C14.7676 30.0913 14.7034 30.1609 14.6253 30.212C14.5471 30.263 14.4575 30.2937 14.3646 30.3015C14.2716 30.3093 14.1781 30.2938 14.0926 30.2565L3.1727 25.4701C2.97255 25.382 2.80241 25.2374 2.68309 25.0542C2.56377 24.8709 2.50043 24.6568 2.50083 24.4381V8.49102C2.50094 8.39702 2.5246 8.30454 2.56964 8.22203C2.61469 8.13953 2.67969 8.06962 2.7587 8.0187C2.83772 7.96777 2.92823 7.93746 3.02198 7.93051C3.11572 7.92357 3.20971 7.94023 3.29537 7.97896L13.5558 12.6134C13.9507 12.7917 14.2858 13.0803 14.5208 13.4444C14.7558 13.8086 14.8806 14.2328 14.8804 14.6662ZM17.1312 29.7422V14.6639C17.1312 14.2307 17.2561 13.8067 17.4911 13.4428C17.726 13.0789 18.061 12.7905 18.4558 12.6123L28.7162 7.97783C28.8019 7.93906 28.896 7.92241 28.9899 7.92941C29.0837 7.93641 29.1743 7.96682 29.2533 8.01788C29.3324 8.06893 29.3973 8.13899 29.4423 8.22165C29.4873 8.30431 29.5108 8.39692 29.5107 8.49102V24.4381C29.5106 24.6566 29.4469 24.8702 29.3274 25.0531C29.2079 25.2359 29.0377 25.3801 28.8377 25.4679L17.919 30.2554C17.8334 30.2929 17.7398 30.3086 17.6467 30.301C17.5535 30.2933 17.4638 30.2626 17.3855 30.2115C17.3072 30.1605 17.2428 30.0907 17.1982 30.0086C17.1536 29.9265 17.1302 29.8345 17.1301 29.7411M16.0058 6.43939C14.141 6.43939 12.6295 5.93521 12.6295 5.31398C12.6295 4.69275 14.141 4.18857 16.0058 4.18857C17.8706 4.18857 19.382 4.69275 19.382 5.31398C19.382 5.93521 17.8706 6.43939 16.0058 6.43939Z" fill="black"/>
</svg>
