<svg width="40" height="40" viewBox="0 0 40 40" fill="none" xmlns="http://www.w3.org/2000/svg">
<rect x="1" y="1" width="38" height="38" rx="12" fill="white" stroke="black" stroke-width="2"/>
<path d="M21.0703 15.7359H25.337M13.6036 16.8026V23.2026M10.4036 20.0026H16.8036M25.337 24.2693H29.6036M5.07031 11.4693V28.5359C5.07031 29.1017 5.29507 29.6444 5.69515 30.0444C6.09523 30.4445 6.63785 30.6693 7.20365 30.6693H32.8036C33.3694 30.6693 33.9121 30.4445 34.3121 30.0444C34.7122 29.6444 34.937 29.1017 34.937 28.5359V11.4693C34.937 10.9035 34.7122 10.3609 34.3121 9.96078C33.9121 9.5607 33.3694 9.33594 32.8036 9.33594H7.20365C6.63785 9.33594 6.09523 9.5607 5.69515 9.96078C5.29507 10.3609 5.07031 10.9035 5.07031 11.4693Z" stroke="black" stroke-width="2.25083"/>
</svg>
