<svg width="37" height="37" viewBox="0 0 37 37" fill="none" xmlns="http://www.w3.org/2000/svg">
<path d="M4.5 25.8084C4.5 25.4082 4.63155 25.0706 4.89464 24.7955C5.15774 24.5204 5.47636 24.3828 5.8505 24.3828C6.05057 24.3828 6.24464 24.4144 6.43271 24.4774C6.62078 24.5404 6.80184 24.6339 6.97591 24.758C7.30103 24.958 7.62615 25.1331 7.95127 25.2832C8.27638 25.4332 8.62651 25.5083 9.00165 25.5083C9.82695 25.5083 10.5337 25.2146 11.1219 24.6274C11.7101 24.0402 12.0038 23.3335 12.0028 22.5072C12.0018 21.6808 11.7081 20.9746 11.1219 20.3884C10.5357 19.8022 9.82895 19.5081 9.00165 19.5061C8.62651 19.5061 8.26388 19.5686 7.91375 19.6936C7.56362 19.8187 7.25101 20.0062 6.97591 20.2563C6.82585 20.3814 6.65079 20.4754 6.45072 20.5384C6.25064 20.6015 6.05057 20.6325 5.8505 20.6315C5.47536 20.6315 5.15674 20.4939 4.89464 20.2188C4.63255 19.9437 4.501 19.6061 4.5 19.2059V13.5039C4.5 13.0787 4.64405 12.7226 4.93216 12.4355C5.22026 12.1484 5.57639 12.0043 6.00055 12.0033H11.6276C11.5026 11.6282 11.409 11.253 11.347 10.8779C11.285 10.5028 11.2535 10.1276 11.2525 9.75248C11.2525 7.87679 11.9092 6.2827 13.2227 4.97022C14.5362 3.65774 16.1303 3.001 18.005 3C19.8796 2.999 21.4742 3.65574 22.7887 4.97022C24.1032 6.2847 24.7594 7.87879 24.7574 9.75248C24.7574 10.1276 24.7264 10.5028 24.6644 10.8779C24.6024 11.253 24.5083 11.6282 24.3823 12.0033H30.0094C30.4345 12.0033 30.7911 12.1474 31.0792 12.4355C31.3673 12.7236 31.5109 13.0797 31.5099 13.5039V19.2059C31.5099 19.6311 31.3659 19.9877 31.0777 20.2758C30.7896 20.5639 30.4335 20.7075 30.0094 20.7065C29.8093 20.7065 29.6342 20.6625 29.4842 20.5744C29.3341 20.4864 29.184 20.3804 29.034 20.2563C28.7589 20.0062 28.4463 19.8187 28.0962 19.6936C27.746 19.5686 27.3834 19.5061 27.0083 19.5061C26.1829 19.5061 25.4762 19.8002 24.888 20.3884C24.2998 20.9766 24.0062 21.6828 24.0072 22.5072C24.0082 23.3315 24.3023 24.0382 24.8895 24.6274C25.4767 25.2166 26.1829 25.5103 27.0083 25.5083C27.3834 25.5083 27.746 25.4457 28.0962 25.3207C28.4463 25.1956 28.7589 25.0081 29.034 24.758C29.159 24.6329 29.3031 24.5264 29.4662 24.4384C29.6292 24.3503 29.8103 24.3068 30.0094 24.3078C30.4345 24.3078 30.7911 24.4519 31.0792 24.74C31.3673 25.0281 31.5109 25.3842 31.5099 25.8084V31.5105C31.5099 31.9356 31.3659 32.2922 31.0777 32.5803C30.7896 32.8684 30.4335 33.012 30.0094 33.011H6.00055C5.57539 33.011 5.21926 32.8669 4.93216 32.5788C4.64505 32.2907 4.501 31.9346 4.5 31.5105V25.8084ZM7.5011 30.0099H28.5088V28.2843C28.2587 28.3593 28.0146 28.4158 27.7765 28.4538C27.5384 28.4918 27.2824 28.5104 27.0083 28.5093C25.3576 28.5093 23.9446 27.9216 22.7692 26.7462C21.5938 25.5708 21.0061 24.1578 21.0061 22.5072C21.0061 20.8565 21.5938 19.4435 22.7692 18.2681C23.9446 17.0927 25.3576 16.505 27.0083 16.505C27.2834 16.505 27.5399 16.524 27.778 16.562C28.0161 16.6 28.2597 16.656 28.5088 16.73V15.0044H21.6813C21.2561 15.0044 20.9 14.8669 20.6129 14.5918C20.3258 14.3167 20.1817 13.979 20.1807 13.5789C20.1807 13.3788 20.2123 13.1722 20.2753 12.9592C20.3383 12.7461 20.4569 12.5775 20.6309 12.4535C21.0561 12.1534 21.3502 11.7592 21.5132 11.271C21.6763 10.7829 21.7573 10.2767 21.7563 9.75248C21.7563 8.70209 21.3937 7.81427 20.6684 7.089C19.9432 6.36373 19.0553 6.0011 18.005 6.0011C16.9546 6.0011 16.0667 6.36373 15.3415 7.089C14.6162 7.81427 14.2536 8.70209 14.2536 9.75248C14.2536 10.2777 14.3351 10.7844 14.4982 11.2725C14.6612 11.7607 14.9548 12.1544 15.379 12.4535C15.5541 12.5785 15.6731 12.7351 15.7361 12.9231C15.7991 13.1112 15.8302 13.3048 15.8292 13.5039C15.8292 13.929 15.6851 14.2856 15.397 14.5737C15.1089 14.8618 14.7528 15.0054 14.3286 15.0044H7.5011V16.73C7.75119 16.655 7.99528 16.599 8.23337 16.562C8.47146 16.525 8.72755 16.506 9.00165 16.505C10.6523 16.505 12.0653 17.0927 13.2407 18.2681C14.4161 19.4435 15.0039 20.8565 15.0039 22.5072C15.0039 24.1578 14.4161 25.5708 13.2407 26.7462C12.0653 27.9216 10.6523 28.5093 9.00165 28.5093C8.72655 28.5093 8.46996 28.4903 8.23187 28.4523C7.99378 28.4143 7.75019 28.3583 7.5011 28.2843V30.0099Z" fill="black"/>
</svg>
