<svg width="40" height="40" viewBox="0 0 40 40" fill="none" xmlns="http://www.w3.org/2000/svg">
<rect x="1" y="1" width="38" height="38" rx="12" fill="white" stroke="black" stroke-width="2"/>
<path d="M18.5455 19.3138L17.0089 17.0089L14.0078 21.5106H27.5128L22.2608 14.0078L18.5455 19.3138Z" fill="black"/>
<path d="M16.2631 15.5028C17.5087 15.5028 18.5185 14.4931 18.5185 13.2475C18.5185 12.0019 17.5087 10.9922 16.2631 10.9922C15.0176 10.9922 14.0078 12.0019 14.0078 13.2475C14.0078 14.4931 15.0176 15.5028 16.2631 15.5028Z" fill="black"/>
<path d="M30.5088 5H11.0017C9.19199 5 6.5 6.19894 6.5 9.50165V30.5094C6.5 33.8121 9.19199 35.011 11.0017 35.011H33.5099V32.0099H11.0197C10.3264 31.9919 9.5011 31.7188 9.5011 30.5094C9.5011 29.2999 10.3264 29.0268 11.0197 29.0088H33.5099V8.0011C33.5099 6.34599 32.1639 5 30.5088 5ZM30.5088 26.0077H9.5011V9.50165C9.5011 8.29221 10.3264 8.01911 11.0017 8.0011H30.5088V26.0077Z" fill="black"/>
</svg>
