<svg width="24" height="33" viewBox="0 0 24 33" fill="none" xmlns="http://www.w3.org/2000/svg">
<path d="M14.9441 8.01492L15.5045 8.18148L19.4547 1.3446C20.0624 0.297968 21.4129 -0.0621643 22.4596 0.545559C23.5062 1.15328 23.8663 2.50378 23.2586 3.55041L19.3095 10.385L19.7361 10.7879L20.4946 13.5801C20.7733 14.613 20.6321 15.7142 20.1018 16.6435L11.5825 31.3931C11.3215 31.8492 10.9447 32.2283 10.4902 32.4919C10.0356 32.7555 9.51948 32.8944 8.99401 32.8944H8.99176C8.46732 32.8944 7.95076 32.7537 7.49834 32.4881L2.25729 29.4495C1.91624 29.2541 1.61719 28.9931 1.37734 28.6817C1.13749 28.3703 0.96157 28.0145 0.8597 27.6348C0.757831 27.2552 0.73202 26.8591 0.783753 26.4695C0.835485 26.0798 0.96374 25.7042 1.16114 25.3643L9.67826 10.6135C9.94302 10.1526 10.2971 9.74919 10.7197 9.42685C11.1423 9.10452 11.625 8.86975 12.1395 8.73631L14.9441 8.01492ZM14.9047 10.3457L12.7034 10.9185C12.4793 10.9762 12.269 11.0783 12.085 11.2186C11.901 11.359 11.747 11.5347 11.632 11.7355L3.10811 26.4964C3.05848 26.58 3.02616 26.6726 3.01307 26.7689C2.99998 26.8652 3.00638 26.9631 3.03189 27.0569C3.0574 27.1506 3.10151 27.2383 3.16158 27.3147C3.22165 27.3911 3.29647 27.4546 3.38158 27.5014L8.63388 30.5457C8.71735 30.5938 8.80957 30.6249 8.90516 30.6371C9.00075 30.6493 9.09781 30.6424 9.19069 30.6167C9.28358 30.591 9.37044 30.5472 9.44622 30.4876C9.522 30.4281 9.58519 30.3541 9.63212 30.27L18.1526 15.5124C18.2682 15.3095 18.3428 15.0858 18.3719 14.8541C18.4011 14.6224 18.3843 14.3872 18.3226 14.1619L17.7295 11.9798L16.4915 10.8149L14.9047 10.3457ZM22.0713 26.1825C22.1163 25.9851 22.1388 25.7814 22.1388 25.5714C22.1388 25.0252 21.9798 24.4909 21.6812 24.0336C21.3827 23.5763 20.9575 23.2158 20.4576 22.996C19.9577 22.7762 19.4045 22.7067 18.8658 22.7959C18.327 22.8851 17.8258 23.1292 17.4234 23.4984L22.0713 26.1825ZM19.3253 28.3849C20.0591 28.3849 20.7264 28.1035 21.2272 27.6444L16.5793 24.9603C16.5343 25.1576 16.5118 25.3613 16.5118 25.5714C16.5118 26.3176 16.8082 27.0332 17.3358 27.5608C17.8635 28.0885 18.5791 28.3849 19.3253 28.3849Z" fill="black"/>
</svg>
