<svg width="32" height="34" viewBox="0 0 32 34" fill="none" xmlns="http://www.w3.org/2000/svg">
<path d="M16.0082 0.617188C10.9656 0.617188 6.86418 4.71861 6.86418 9.76116C6.86418 14.8037 10.9656 18.9051 16.0082 18.9051C21.0507 18.9051 25.1521 14.8037 25.1521 9.76116C25.1521 4.71861 21.0507 0.617188 16.0082 0.617188ZM15.4222 2.80661L14.5941 5.28575L18.2619 4.90149L17.8971 3.6736L18.9257 3.9584V5.32064L20.5325 5.42544L20.2182 4.20296L21.0627 3.71383C22.7895 5.15773 23.886 7.32866 23.886 9.76116C23.886 10.9336 23.6311 12.0451 23.1739 13.044L21.3359 13.355V15.5691C20.9854 15.8909 20.6063 16.1802 20.2036 16.4336L19.4146 15.2063L17.8776 15.6255L18.3095 17.2986C17.5634 17.525 16.7879 17.6397 16.0082 17.6391C13.8268 17.6391 11.8556 16.7574 10.4305 15.3301L11.8345 15.1366L12.7777 13.2851L9.77344 11.7831L11.9043 9.96655L10.053 8.42966L8.16143 9.0601C8.38032 6.56675 9.7548 4.41053 11.7483 3.12932L12.1489 6.33365L15.4222 2.80661ZM18.157 7.32352L15.6129 8.95368L17.836 10.9297L19.4416 10.4604L19.2933 12.387L22.2327 11.646L21.1211 9.12664L19.3428 9.15133L20.9236 7.79282L18.1571 7.32352H18.157ZM15.5142 10.164L14.1556 10.7567L15.1189 11.4731L15.5142 10.164ZM12.3235 10.3858L11.3804 11.5035L13.9932 13.3399L12.3235 10.3858ZM16.5269 11.0038L15.5636 12.807L17.8855 14.3878L17.0703 13.2268L18.083 12.0165L16.5269 11.0038ZM2.23381 12.9307C1.61357 12.921 0.978766 13.7109 0.975108 15.7359C0.969622 18.8416 0.668714 19.7182 2.10594 23.2305C3.15982 25.8062 3.63242 27.7858 7.00486 29.3855C7.40438 30.7939 7.24492 31.125 6.97391 32.3285C6.72097 33.4521 9.32483 33.6586 11.2318 32.7121C13.278 31.5959 13.1063 28.5229 12.7407 26.439C12.3156 24.0156 10.9781 23.5119 9.81867 22.4767C8.61483 20.7552 8.33467 17.6365 6.38222 16.3784C5.97447 16.1157 3.89436 15.849 6.75234 22.9862C2.98425 22.0529 3.67061 17.7268 3.39812 14.5238C3.31695 13.5699 2.78104 12.939 2.23381 12.9306V12.9307ZM29.7825 12.9307C29.2353 12.9391 28.6994 13.5699 28.6182 14.5238C28.3457 17.7268 29.0321 22.0529 25.264 22.9862C28.122 15.8489 26.0418 16.1157 25.6341 16.3784C23.6816 17.6365 23.4016 20.7552 22.1976 22.4768C21.0383 23.5119 19.7006 24.0156 19.2756 26.439C18.91 28.5229 18.7383 31.5959 20.7845 32.7121C22.6915 33.6585 25.2953 33.4521 25.0423 32.3285C24.7714 31.125 24.6119 30.7939 25.0115 29.3855C28.3839 27.7858 28.8565 25.8062 29.9104 23.2305C31.3476 19.7182 31.0467 18.8416 31.0412 15.736C31.0375 13.7109 30.4027 12.921 29.7825 12.9307Z" fill="black"/>
</svg>
