<svg width="20" height="33" viewBox="0 0 20 33" fill="none" xmlns="http://www.w3.org/2000/svg">
<path d="M15.8314 0.234375C15.4797 1.60668 15.135 2.95576 14.7833 4.28867C11.597 4.80003 8.41773 4.80074 5.23141 4.28867C4.87971 2.95576 4.53506 1.60668 4.18336 0.234375C8.04494 1.82261 11.9698 1.82261 15.8314 0.234375ZM17.0482 0.557228L19.4679 3.78927C18.4831 10.5593 16.6543 18.1488 14.0167 25.0983C13.264 24.2261 12.2441 23.6001 11.0765 23.3609C13.0671 15.5322 15.0577 8.42808 17.0482 0.557228ZM2.96651 0.557228C4.95709 8.42808 6.94766 15.5322 8.93823 23.3609C7.77062 23.6001 6.75071 24.2261 5.99809 25.0983C3.36041 18.1488 1.53161 10.5593 0.546875 3.78927L2.96651 0.557228ZM10.0074 24.5144C12.2301 24.5144 14.0167 26.301 14.0167 28.5237C14.0167 30.7464 12.2301 32.533 10.0074 32.533C7.78468 32.533 5.99809 30.7464 5.99809 28.5237C5.99809 26.301 7.78468 24.5144 10.0074 24.5144Z" fill="black"/>
</svg>
