<svg width="40" height="40" viewBox="0 0 40 40" fill="none" xmlns="http://www.w3.org/2000/svg">
<rect x="1" y="1" width="38" height="38" rx="12" fill="white" stroke="black" stroke-width="2"/>
<path d="M19.1081 5.15103L5.31434 18.9448C5.03303 19.2262 4.875 19.6078 4.875 20.0057C4.875 20.4036 5.03303 20.7852 5.31434 21.0666L19.1089 34.8612C19.3903 35.1425 19.7719 35.3005 20.1698 35.3005C20.5677 35.3005 20.9493 35.1425 21.2307 34.8612L35.0245 21.0674C35.3058 20.786 35.4638 20.4044 35.4638 20.0065C35.4638 19.6086 35.3058 19.227 35.0245 18.9456L21.2299 5.15028C20.9485 4.86897 20.5669 4.71094 20.169 4.71094C19.7711 4.71094 19.3895 4.86897 19.1081 5.15028V5.15103Z" stroke="black" stroke-width="2.25083" stroke-linejoin="round"/>
<path d="M15.5078 20.0095H24.5111M20.0095 15.5078V24.5111" stroke="black" stroke-width="2.25083" stroke-linecap="round"/>
</svg>
