<svg width="40" height="40" viewBox="0 0 40 40" fill="none" xmlns="http://www.w3.org/2000/svg">
<rect x="1" y="1" width="38" height="38" rx="12" fill="white" stroke="black" stroke-width="2"/>
<path d="M10.9877 17.6129C11.1047 18.8508 10.4441 19.9245 9.52126 19.9988C8.59842 20.0719 7.75436 19.1288 7.63844 17.8909C7.5214 16.6518 8.18201 15.5793 9.10485 15.505C10.0277 15.4228 10.8718 16.3648 10.9877 17.6129ZM16.2749 31.2518C17.1977 31.1786 17.8572 30.1061 17.7401 28.867C17.6242 27.6189 16.779 26.677 15.8573 26.7602C14.9345 26.8334 14.2739 27.9059 14.3909 29.145C14.5068 30.3829 15.3531 31.326 16.2749 31.2518ZM30.9052 15.505C31.8281 15.5781 32.4876 16.6507 32.3705 17.8897C32.2546 19.1378 31.4094 20.0798 30.4866 19.9976C29.5637 19.9234 28.9042 18.8508 29.0213 17.6118C29.1372 16.3738 29.9824 15.4307 30.9052 15.505ZM28.9943 23.5168C29.1113 22.2788 28.4507 21.2052 27.529 21.1309C26.6061 21.0578 25.7621 22.0009 25.645 23.2388C25.528 24.4768 26.1886 25.5504 27.1103 25.6247C28.0332 25.7069 28.8772 24.7649 28.9943 23.5168ZM24.1527 26.7591C25.0756 26.8323 25.7351 27.9048 25.618 29.1439C25.5021 30.3919 24.6569 31.3339 23.7341 31.2506C22.8113 31.1775 22.1518 30.105 22.2688 28.8659C22.3847 27.6279 23.2299 26.6848 24.1527 26.7591Z" fill="black"/>
<path d="M17.6233 4.75718L7.05678 9.31848C6.80994 9.42952 6.58861 9.57582 6.39279 9.75739C5.78103 9.90756 5.23737 10.2587 4.84886 10.7545C4.46035 11.2504 4.24948 11.8622 4.25 12.4921V28.4392C4.25008 29.0951 4.44116 29.7367 4.7999 30.2857C5.15865 30.8347 5.66952 31.2673 6.27012 31.5307L17.1877 36.3171C17.522 36.4634 17.863 36.54 18.2006 36.5535C19.3635 36.9973 20.6492 36.9973 21.8121 36.5535C22.1474 36.54 22.4896 36.4634 22.8238 36.3171L33.7403 31.5307C34.3413 31.2674 34.8525 30.8347 35.2115 30.2854C35.5705 29.7362 35.7616 29.0943 35.7616 28.4381V12.491C35.7619 11.8856 35.5669 11.2962 35.2056 10.8105C34.8443 10.3247 34.336 9.9684 33.7561 9.79453C33.5589 9.5944 33.3261 9.43293 33.0696 9.31848L22.3894 4.75718C21.6394 4.42281 20.8275 4.25 20.0063 4.25C19.1852 4.25 18.3733 4.42281 17.6233 4.75718ZM18.8804 18.6662V33.7422C18.8801 33.8355 18.8567 33.9273 18.8122 34.0093C18.7676 34.0913 18.7034 34.1609 18.6253 34.212C18.5471 34.263 18.4575 34.2937 18.3646 34.3015C18.2716 34.3093 18.1781 34.2938 18.0926 34.2565L7.1727 29.4701C6.97255 29.382 6.80241 29.2374 6.68309 29.0542C6.56377 28.8709 6.50043 28.6568 6.50083 28.4381V12.491C6.50094 12.397 6.5246 12.3045 6.56964 12.222C6.61469 12.1395 6.67969 12.0696 6.7587 12.0187C6.83772 11.9678 6.92823 11.9375 7.02198 11.9305C7.11572 11.9236 7.20971 11.9402 7.29537 11.979L17.5558 16.6134C17.9507 16.7917 18.2858 17.0803 18.5208 17.4444C18.7558 17.8086 18.8806 18.2328 18.8804 18.6662ZM21.1312 33.7422V18.6639C21.1312 18.2307 21.2561 17.8067 21.4911 17.4428C21.726 17.0789 22.061 16.7905 22.4558 16.6123L32.7162 11.9778C32.8019 11.9391 32.896 11.9224 32.9899 11.9294C33.0837 11.9364 33.1743 11.9668 33.2533 12.0179C33.3324 12.0689 33.3973 12.139 33.4423 12.2216C33.4873 12.3043 33.5108 12.3969 33.5107 12.491V28.4381C33.5106 28.6566 33.4469 28.8702 33.3274 29.0531C33.2079 29.2359 33.0377 29.3801 32.8377 29.4679L21.919 34.2554C21.8334 34.2929 21.7398 34.3086 21.6467 34.301C21.5535 34.2933 21.4638 34.2626 21.3855 34.2115C21.3072 34.1605 21.2428 34.0907 21.1982 34.0086C21.1536 33.9265 21.1302 33.8345 21.1301 33.7411M20.0058 10.4394C18.141 10.4394 16.6295 9.93521 16.6295 9.31398C16.6295 8.69275 18.141 8.18857 20.0058 8.18857C21.8706 8.18857 23.382 8.69275 23.382 9.31398C23.382 9.93521 21.8706 10.4394 20.0058 10.4394Z" fill="black"/>
</svg>
