<svg width="33" height="24" viewBox="0 0 33 24" fill="none" xmlns="http://www.w3.org/2000/svg">
<path d="M9.50485 24.0088C8.37944 24.0088 7.39758 23.6527 6.55927 22.9404C5.72096 22.2281 5.22728 21.3088 5.07823 20.1824C4.12788 19.6822 3.3776 18.9695 2.8274 18.0441C2.2772 17.1188 2.0021 16.1059 2.0021 15.0055C2.0021 13.68 2.38324 12.4981 3.14552 11.4597C3.9078 10.4213 4.92717 9.70256 6.20364 9.30341L3.50265 6.60242L3.05248 7.05258C2.77738 7.32769 2.42725 7.46524 2.0021 7.46524C1.57694 7.46524 1.22681 7.32769 0.951714 7.05258C0.676613 6.77748 0.539063 6.42736 0.539062 6.0022C0.539062 5.57704 0.676613 5.22692 0.951714 4.95182L3.95281 1.95072C4.22791 1.67561 4.57804 1.53806 5.0032 1.53806C5.42835 1.53806 5.77848 1.67561 6.05358 1.95072C6.32868 2.22582 6.46623 2.57594 6.46623 3.0011C6.46623 3.42626 6.32868 3.77638 6.05358 4.05148L5.60342 4.50165L7.70419 6.60242L8.90463 3.07613C9.20474 2.15079 9.74894 1.40702 10.5372 0.84481C11.3255 0.282604 12.2068 0.00100037 13.1812 0H20.834C21.8094 0 22.6912 0.281603 23.4795 0.84481C24.2678 1.40802 24.8115 2.15179 25.1106 3.07613L27.1363 9.15335C28.5618 9.42846 29.7313 10.1162 30.6446 11.2166C31.5579 12.317 32.0141 13.58 32.0131 15.0055C32.0131 16.1059 31.738 17.1188 31.1878 18.0441C30.6376 18.9695 29.8873 19.6822 28.937 20.1824C28.7869 21.3078 28.2932 22.2271 27.4559 22.9404C26.6186 23.6537 25.6368 24.0098 24.5103 24.0088C23.56 24.0088 22.7032 23.7337 21.9399 23.1835C21.1766 22.6333 20.6329 21.908 20.3088 21.0077H13.7064C13.3813 21.908 12.8371 22.6333 12.0738 23.1835C11.3105 23.7337 10.4542 24.0088 9.50485 24.0088ZM10.1051 9.0033H15.507V3.0011H13.1812C12.8561 3.0011 12.5685 3.09513 12.3184 3.2832C12.0683 3.47127 11.8807 3.72737 11.7557 4.05148L10.1051 9.0033ZM18.5082 9.0033H23.9101L22.2595 4.05148C22.1345 3.72637 21.9469 3.46977 21.6968 3.2817C21.4467 3.09363 21.1591 3.0001 20.834 3.0011H18.5082V9.0033ZM13.7064 18.0066H20.3088C20.6339 17.1063 21.1781 16.381 21.9414 15.8308C22.7047 15.2806 23.561 15.0055 24.5103 15.0055C25.2606 15.0055 25.9609 15.1806 26.6111 15.5307C27.2614 15.8808 27.8116 16.356 28.2617 16.9562C28.4868 16.6811 28.6684 16.3745 28.8064 16.0364C28.9445 15.6983 29.013 15.3546 29.012 15.0055C29.012 14.1802 28.7184 13.4739 28.1312 12.8867C27.544 12.2995 26.8372 12.0054 26.0109 12.0044H8.0043C7.179 12.0044 6.47274 12.2985 5.88552 12.8867C5.29831 13.4749 5.0042 14.1812 5.0032 15.0055C5.0032 15.3556 5.07222 15.6998 5.21027 16.0379C5.34833 16.376 5.52939 16.6821 5.75347 16.9562C6.20364 16.356 6.75384 15.8808 7.40408 15.5307C8.05432 15.1806 8.75457 15.0055 9.50485 15.0055C10.4552 15.0055 11.312 15.2806 12.0753 15.8308C12.8386 16.381 13.3823 17.1063 13.7064 18.0066ZM9.50485 21.0077C9.93001 21.0077 10.2866 20.8641 10.5747 20.577C10.8628 20.2899 11.0064 19.9333 11.0054 19.5071C11.0044 19.081 10.8603 18.7249 10.5732 18.4388C10.2861 18.1527 9.93001 18.0086 9.50485 18.0066C9.07969 18.0046 8.72356 18.1487 8.43646 18.4388C8.14935 18.7289 8.0053 19.085 8.0043 19.5071C8.0033 19.9293 8.14735 20.2859 8.43646 20.577C8.72556 20.8681 9.08169 21.0117 9.50485 21.0077ZM24.5103 21.0077C24.9355 21.0077 25.2921 20.8636 25.5802 20.5755C25.8683 20.2874 26.0119 19.9313 26.0109 19.5071C26.0099 19.083 25.8658 18.7269 25.5787 18.4388C25.2916 18.1507 24.9355 18.0066 24.5103 18.0066C24.0852 18.0066 23.7291 18.1507 23.442 18.4388C23.1549 18.7269 23.0108 19.083 23.0098 19.5071C23.0088 19.9313 23.1529 20.2879 23.442 20.577C23.7311 20.8661 24.0872 21.0097 24.5103 21.0077Z" fill="black"/>
</svg>
