<svg width="40" height="40" viewBox="0 0 40 40" fill="none" xmlns="http://www.w3.org/2000/svg">
<rect x="1" y="1" width="38" height="38" rx="12" fill="white" stroke="black" stroke-width="2"/>
<path d="M20.0082 3.61719C14.9656 3.61719 10.8642 7.71861 10.8642 12.7612C10.8642 17.8037 14.9656 21.9051 20.0082 21.9051C25.0507 21.9051 29.1521 17.8037 29.1521 12.7612C29.1521 7.71861 25.0507 3.61719 20.0082 3.61719ZM19.4222 5.80661L18.5941 8.28575L22.2619 7.90149L21.8971 6.6736L22.9257 6.9584V8.32064L24.5325 8.42544L24.2182 7.20296L25.0627 6.71383C26.7895 8.15773 27.886 10.3287 27.886 12.7612C27.886 13.9336 27.6311 15.0451 27.1739 16.044L25.3359 16.355V18.5691C24.9854 18.8909 24.6063 19.1802 24.2036 19.4336L23.4146 18.2063L21.8776 18.6255L22.3095 20.2986C21.5634 20.525 20.7879 20.6397 20.0082 20.6391C17.8268 20.6391 15.8556 19.7574 14.4305 18.3301L15.8345 18.1366L16.7777 16.2851L13.7734 14.7831L15.9043 12.9666L14.053 11.4297L12.1614 12.0601C12.3803 9.56675 13.7548 7.41053 15.7483 6.12932L16.1489 9.33365L19.4222 5.80661ZM22.157 10.3235L19.6129 11.9537L21.836 13.9297L23.4416 13.4604L23.2933 15.387L26.2327 14.646L25.1211 12.1266L23.3428 12.1513L24.9236 10.7928L22.1571 10.3235H22.157ZM19.5142 13.164L18.1556 13.7567L19.1189 14.4731L19.5142 13.164ZM16.3235 13.3858L15.3804 14.5035L17.9932 16.3399L16.3235 13.3858ZM20.5269 14.0038L19.5636 15.807L21.8855 17.3878L21.0703 16.2268L22.083 15.0165L20.5269 14.0038ZM6.23381 15.9307C5.61357 15.921 4.97877 16.7109 4.97511 18.7359C4.96962 21.8416 4.66871 22.7182 6.10594 26.2305C7.15982 28.8062 7.63242 30.7858 11.0049 32.3855C11.4044 33.7939 11.2449 34.125 10.9739 35.3285C10.721 36.4521 13.3248 36.6586 15.2318 35.7121C17.278 34.5959 17.1063 31.5229 16.7407 29.439C16.3156 27.0156 14.9781 26.5119 13.8187 25.4767C12.6148 23.7552 12.3347 20.6365 10.3822 19.3784C9.97447 19.1157 7.89436 18.849 10.7523 25.9862C6.98425 25.0529 7.67061 20.7268 7.39812 17.5238C7.31695 16.5699 6.78104 15.939 6.23381 15.9306V15.9307ZM33.7825 15.9307C33.2353 15.9391 32.6994 16.5699 32.6182 17.5238C32.3457 20.7268 33.0321 25.0529 29.264 25.9862C32.122 18.8489 30.0418 19.1157 29.6341 19.3784C27.6816 20.6365 27.4016 23.7552 26.1976 25.4768C25.0383 26.5119 23.7006 27.0156 23.2756 29.439C22.91 31.5229 22.7383 34.5959 24.7845 35.7121C26.6915 36.6585 29.2953 36.4521 29.0423 35.3285C28.7714 34.125 28.6119 33.7939 29.0115 32.3855C32.3839 30.7858 32.8565 28.8062 33.9104 26.2305C35.3476 22.7182 35.0467 21.8416 35.0412 18.736C35.0376 16.7109 34.4027 15.921 33.7825 15.9307Z" fill="black"/>
</svg>
