<svg width="37" height="37" viewBox="0 0 37 37" fill="none" xmlns="http://www.w3.org/2000/svg">
<path d="M16.5455 17.3138L15.0089 15.0089L12.0078 19.5106H25.5128L20.2608 12.0078L16.5455 17.3138Z" fill="black"/>
<path d="M14.2631 13.5028C15.5087 13.5028 16.5185 12.4931 16.5185 11.2475C16.5185 10.0019 15.5087 8.99219 14.2631 8.99219C13.0176 8.99219 12.0078 10.0019 12.0078 11.2475C12.0078 12.4931 13.0176 13.5028 14.2631 13.5028Z" fill="black"/>
<path d="M28.5088 3H9.00165C7.19199 3 4.5 4.19894 4.5 7.50165V28.5093C4.5 31.8121 7.19199 33.011 9.00165 33.011H31.5099V30.0099H9.01966C8.3264 29.9919 7.5011 29.7188 7.5011 28.5093C7.5011 27.2999 8.3264 27.0268 9.01966 27.0088H31.5099V6.0011C31.5099 4.34599 30.1639 3 28.5088 3ZM28.5088 24.0077H7.5011V7.50165C7.5011 6.29221 8.3264 6.01911 9.00165 6.0011H28.5088V24.0077Z" fill="black"/>
</svg>
