<svg width="40" height="40" viewBox="0 0 40 40" fill="none" xmlns="http://www.w3.org/2000/svg">
<rect x="1" y="1" width="38" height="38" rx="12" fill="white" stroke="black" stroke-width="2"/>
<path d="M12.5048 32.0088C11.3794 32.0088 10.3976 31.6527 9.55927 30.9404C8.72096 30.2281 8.22728 29.3088 8.07823 28.1824C7.12788 27.6822 6.3776 26.9695 5.8274 26.0441C5.2772 25.1188 5.0021 24.1059 5.0021 23.0055C5.0021 21.68 5.38324 20.4981 6.14552 19.4597C6.9078 18.4213 7.92717 17.7026 9.20364 17.3034L6.50265 14.6024L6.05248 15.0526C5.77738 15.3277 5.42725 15.4652 5.0021 15.4652C4.57694 15.4652 4.22681 15.3277 3.95171 15.0526C3.67661 14.7775 3.53906 14.4274 3.53906 14.0022C3.53906 13.577 3.67661 13.2269 3.95171 12.9518L6.95281 9.95072C7.22791 9.67561 7.57804 9.53806 8.0032 9.53806C8.42835 9.53806 8.77848 9.67561 9.05358 9.95072C9.32868 10.2258 9.46623 10.5759 9.46623 11.0011C9.46623 11.4263 9.32868 11.7764 9.05358 12.0515L8.60342 12.5016L10.7042 14.6024L11.9046 11.0761C12.2047 10.1508 12.7489 9.40702 13.5372 8.84481C14.3255 8.2826 15.2068 8.001 16.1812 8H23.834C24.8094 8 25.6912 8.2816 26.4795 8.84481C27.2678 9.40802 27.8115 10.1518 28.1106 11.0761L30.1363 17.1534C31.5618 17.4285 32.7313 18.1162 33.6446 19.2166C34.5579 20.317 35.0141 21.58 35.0131 23.0055C35.0131 24.1059 34.738 25.1188 34.1878 26.0441C33.6376 26.9695 32.8873 27.6822 31.937 28.1824C31.7869 29.3078 31.2932 30.2271 30.4559 30.9404C29.6186 31.6537 28.6368 32.0098 27.5103 32.0088C26.56 32.0088 25.7032 31.7337 24.9399 31.1835C24.1766 30.6333 23.6329 29.908 23.3088 29.0077H16.7064C16.3813 29.908 15.8371 30.6333 15.0738 31.1835C14.3105 31.7337 13.4542 32.0088 12.5048 32.0088ZM13.1051 17.0033H18.507V11.0011H16.1812C15.8561 11.0011 15.5685 11.0951 15.3184 11.2832C15.0683 11.4713 14.8807 11.7274 14.7557 12.0515L13.1051 17.0033ZM21.5081 17.0033H26.9101L25.2595 12.0515C25.1345 11.7264 24.9469 11.4698 24.6968 11.2817C24.4467 11.0936 24.1591 11.0001 23.834 11.0011H21.5081V17.0033ZM16.7064 26.0066H23.3088C23.6339 25.1063 24.1781 24.381 24.9414 23.8308C25.7047 23.2806 26.561 23.0055 27.5103 23.0055C28.2606 23.0055 28.9609 23.1806 29.6111 23.5307C30.2614 23.8808 30.8116 24.356 31.2617 24.9562C31.4868 24.6811 31.6684 24.3745 31.8064 24.0364C31.9445 23.6983 32.013 23.3546 32.012 23.0055C32.012 22.1802 31.7184 21.4739 31.1312 20.8867C30.544 20.2995 29.8372 20.0054 29.0109 20.0044H11.0043C10.179 20.0044 9.47274 20.2985 8.88552 20.8867C8.29831 21.4749 8.0042 22.1812 8.0032 23.0055C8.0032 23.3556 8.07222 23.6998 8.21027 24.0379C8.34833 24.376 8.52939 24.6821 8.75347 24.9562C9.20364 24.356 9.75384 23.8808 10.4041 23.5307C11.0543 23.1806 11.7546 23.0055 12.5048 23.0055C13.4552 23.0055 14.312 23.2806 15.0753 23.8308C15.8386 24.381 16.3823 25.1063 16.7064 26.0066ZM12.5048 29.0077C12.93 29.0077 13.2866 28.8641 13.5747 28.577C13.8628 28.2899 14.0064 27.9333 14.0054 27.5071C14.0044 27.081 13.8603 26.7249 13.5732 26.4388C13.2861 26.1527 12.93 26.0086 12.5048 26.0066C12.0797 26.0046 11.7236 26.1487 11.4365 26.4388C11.1494 26.7289 11.0053 27.085 11.0043 27.5071C11.0033 27.9293 11.1474 28.2859 11.4365 28.577C11.7256 28.8681 12.0817 29.0117 12.5048 29.0077ZM27.5103 29.0077C27.9355 29.0077 28.2921 28.8636 28.5802 28.5755C28.8683 28.2874 29.0119 27.9313 29.0109 27.5071C29.0099 27.083 28.8658 26.7269 28.5787 26.4388C28.2916 26.1507 27.9355 26.0066 27.5103 26.0066C27.0852 26.0066 26.7291 26.1507 26.442 26.4388C26.1549 26.7269 26.0108 27.083 26.0098 27.5071C26.0088 27.9313 26.1529 28.2879 26.442 28.577C26.7311 28.8661 27.0872 29.0097 27.5103 29.0077Z" fill="black"/>
</svg>
