<svg width="34" height="32" viewBox="0 0 34 32" fill="none" xmlns="http://www.w3.org/2000/svg">
<path d="M18.0703 11.7359H22.337M10.6036 12.8026V19.2026M7.40365 16.0026H13.8036M22.337 20.2693H26.6036M2.07031 7.46927V24.5359C2.07031 25.1017 2.29507 25.6444 2.69515 26.0444C3.09523 26.4445 3.63785 26.6693 4.20365 26.6693H29.8036C30.3694 26.6693 30.9121 26.4445 31.3121 26.0444C31.7122 25.6444 31.937 25.1017 31.937 24.5359V7.46927C31.937 6.90348 31.7122 6.36085 31.3121 5.96078C30.9121 5.5607 30.3694 5.33594 29.8036 5.33594H4.20365C3.63785 5.33594 3.09523 5.5607 2.69515 5.96078C2.29507 6.36085 2.07031 6.90348 2.07031 7.46927Z" stroke="black" stroke-width="2.25083"/>
</svg>
