<svg width="23" height="26" viewBox="0 0 23 26" fill="none" xmlns="http://www.w3.org/2000/svg">
<path fill-rule="evenodd" clip-rule="evenodd" d="M0.5 2.66927C0.5 2.05043 0.745833 1.45694 1.18342 1.01935C1.621 0.58177 2.21449 0.335938 2.83333 0.335938H5.16667C5.59133 0.335938 5.99033 0.449104 6.33333 0.648604C6.68804 0.443791 7.09041 0.335956 7.5 0.335938H9.83333C10.6815 0.335938 11.4247 0.788604 11.833 1.46644C12.078 1.27044 12.365 1.1211 12.687 1.03477L14.941 0.431604C15.237 0.352204 15.5457 0.331892 15.8496 0.371829C16.1534 0.411765 16.4465 0.511167 16.7119 0.664358C16.9773 0.817549 17.21 1.02153 17.3965 1.26464C17.5831 1.50776 17.72 1.78525 17.7993 2.08127L22.6293 20.1121C22.7087 20.4081 22.729 20.7168 22.6891 21.0207C22.6492 21.3245 22.5498 21.6176 22.3966 21.883C22.2434 22.1484 22.0394 22.3811 21.7963 22.5677C21.5532 22.7542 21.2757 22.8911 20.9797 22.9704L18.7257 23.5736C18.4297 23.653 18.1209 23.6733 17.8171 23.6334C17.5132 23.5934 17.2202 23.494 16.9548 23.3409C16.6894 23.1877 16.4567 22.9837 16.2701 22.7406C16.0835 22.4974 15.9467 22.22 15.8673 21.9239L12.1667 8.10944V21.3359C12.1667 21.9548 11.9208 22.5483 11.4832 22.9859C11.0457 23.4234 10.4522 23.6693 9.83333 23.6693H7.5C7.09041 23.6693 6.68804 23.5614 6.33333 23.3566C5.97863 23.5614 5.57626 23.6693 5.16667 23.6693H2.83333C2.21449 23.6693 1.621 23.4234 1.18342 22.9859C0.745833 22.5483 0.5 21.9548 0.5 21.3359V2.66927ZM2.83333 2.66927H5.16667V21.3359H2.83333V2.66927ZM9.83333 21.3359H7.5V2.66927H9.83333V21.3359ZM13.2913 3.28877L15.5442 2.6856L20.3765 20.7164L18.1225 21.3196L13.2913 3.28877Z" fill="black"/>
</svg>
