<svg width="34" height="34" viewBox="0 0 34 34" fill="none" xmlns="http://www.w3.org/2000/svg">
<path d="M16.1081 2.15103L2.31434 15.9448C2.03303 16.2262 1.875 16.6078 1.875 17.0057C1.875 17.4036 2.03303 17.7852 2.31434 18.0666L16.1089 31.8612C16.3903 32.1425 16.7719 32.3005 17.1698 32.3005C17.5677 32.3005 17.9493 32.1425 18.2307 31.8612L32.0245 18.0674C32.3058 17.786 32.4638 17.4044 32.4638 17.0065C32.4638 16.6086 32.3058 16.227 32.0245 15.9456L18.2299 2.15028C17.9485 1.86897 17.5669 1.71094 17.169 1.71094C16.7711 1.71094 16.3895 1.86897 16.1081 2.15028V2.15103Z" stroke="black" stroke-width="2.25083" stroke-linejoin="round"/>
<path d="M12.5078 17.0095H21.5111M17.0095 12.5078V21.5111" stroke="black" stroke-width="2.25083" stroke-linecap="round"/>
</svg>
