<svg width="30" height="24" viewBox="0 0 30 24" fill="none" xmlns="http://www.w3.org/2000/svg">
<path d="M3.0011 24.0088C2.1758 24.0088 1.46954 23.7152 0.882324 23.128C0.295108 22.5408 0.00100037 21.834 0 21.0077V3.0011C0 2.1758 0.294108 1.46954 0.882324 0.882323C1.47054 0.295108 2.1768 0.00100037 3.0011 0H25.5093C25.9345 0 26.2911 0.144053 26.5792 0.432159C26.8673 0.720264 27.0109 1.07639 27.0099 1.50055C27.0089 1.92471 26.8648 2.28134 26.5777 2.57044C26.2906 2.85955 25.9345 3.0031 25.5093 3.0011H3.0011V21.0077H6.0022C6.42736 21.0077 6.78399 21.1518 7.07209 21.4399C7.3602 21.728 7.50375 22.0841 7.50275 22.5083C7.50175 22.9324 7.3577 23.289 7.07059 23.5781C6.78349 23.8672 6.42736 24.0108 6.0022 24.0088H3.0011ZM13.505 20.2574C14.1302 20.2574 14.6619 20.0388 15.1 19.6017C15.5382 19.1645 15.7568 18.6328 15.7558 18.0066C15.7548 17.3804 15.5362 16.8492 15.1 16.413C14.6639 15.9769 14.1322 15.7578 13.505 15.7558C12.8777 15.7538 12.3465 15.9729 11.9114 16.413C11.4762 16.8532 11.2571 17.3844 11.2541 18.0066C11.2511 18.6288 11.4702 19.1605 11.9114 19.6017C12.3525 20.0428 12.8837 20.2614 13.505 20.2574ZM28.5105 24.0088H21.0077C20.5825 24.0088 20.2264 23.8647 19.9393 23.5766C19.6522 23.2885 19.5082 22.9324 19.5072 22.5083V9.0033C19.5072 8.57814 19.6512 8.22201 19.9393 7.93491C20.2274 7.6478 20.5835 7.50375 21.0077 7.50275H28.5105C28.9356 7.50275 29.2922 7.6468 29.5803 7.93491C29.8684 8.22301 30.012 8.57914 30.011 9.0033V22.5083C30.011 22.9334 29.8669 23.29 29.5788 23.5781C29.2907 23.8662 28.9346 24.0098 28.5105 24.0088ZM22.5083 21.0077H27.0099V10.5038H22.5083V21.0077ZM10.5038 22.5083V21.3453C10.0287 20.9202 9.66004 20.42 9.39794 19.8448C9.13585 19.2696 9.0043 18.6568 9.0033 18.0066C9.0023 17.3564 9.13385 16.7436 9.39794 16.1684C9.66204 15.5932 10.0307 15.093 10.5038 14.6679V13.505C10.5038 13.0798 10.6479 12.7237 10.936 12.4366C11.2241 12.1495 11.5802 12.0054 12.0044 12.0044H15.0055C15.4307 12.0044 15.7873 12.1485 16.0754 12.4366C16.3635 12.7247 16.5071 13.0808 16.5061 13.505V14.6679C16.9812 15.093 17.3504 15.5932 17.6135 16.1684C17.8766 16.7436 18.0076 17.3564 18.0066 18.0066C18.0056 18.6568 17.8746 19.2696 17.6135 19.8448C17.3524 20.42 16.9832 20.9202 16.5061 21.3453V22.5083C16.5061 22.9334 16.362 23.29 16.0739 23.5781C15.7858 23.8662 15.4297 24.0098 15.0055 24.0088H12.0044C11.5792 24.0088 11.2231 23.8647 10.936 23.5766C10.6489 23.2885 10.5049 22.9324 10.5038 22.5083Z" fill="black"/>
</svg>
