<svg width="40" height="40" viewBox="0 0 40 40" fill="none" xmlns="http://www.w3.org/2000/svg">
<rect x="1" y="1" width="38" height="38" rx="12" fill="white" stroke="black" stroke-width="2"/>
<path d="M6.5 27.8084C6.5 27.4082 6.63155 27.0706 6.89464 26.7955C7.15774 26.5204 7.47636 26.3828 7.8505 26.3828C8.05057 26.3828 8.24464 26.4144 8.43271 26.4774C8.62078 26.5404 8.80184 26.6339 8.97591 26.758C9.30103 26.9581 9.62615 27.1331 9.95127 27.2832C10.2764 27.4332 10.6265 27.5083 11.0017 27.5083C11.827 27.5083 12.5337 27.2146 13.1219 26.6274C13.7101 26.0402 14.0038 25.3335 14.0028 24.5072C14.0018 23.6808 13.7081 22.9746 13.1219 22.3884C12.5357 21.8022 11.829 21.5081 11.0017 21.5061C10.6265 21.5061 10.2639 21.5686 9.91375 21.6936C9.56362 21.8187 9.25101 22.0062 8.97591 22.2563C8.82585 22.3814 8.65079 22.4754 8.45072 22.5384C8.25064 22.6015 8.05057 22.6325 7.8505 22.6315C7.47536 22.6315 7.15674 22.4939 6.89464 22.2188C6.63255 21.9437 6.501 21.6061 6.5 21.2059V15.5039C6.5 15.0787 6.64405 14.7226 6.93216 14.4355C7.22026 14.1484 7.57639 14.0043 8.00055 14.0033H13.6276C13.5026 13.6282 13.409 13.253 13.347 12.8779C13.285 12.5028 13.2535 12.1276 13.2525 11.7525C13.2525 9.87679 13.9092 8.2827 15.2227 6.97022C16.5362 5.65774 18.1303 5.001 20.005 5C21.8796 4.999 23.4742 5.65574 24.7887 6.97022C26.1032 8.28471 26.7594 9.87879 26.7574 11.7525C26.7574 12.1276 26.7264 12.5028 26.6644 12.8779C26.6024 13.253 26.5083 13.6282 26.3823 14.0033H32.0094C32.4345 14.0033 32.7911 14.1474 33.0792 14.4355C33.3673 14.7236 33.5109 15.0797 33.5099 15.5039V21.2059C33.5099 21.6311 33.3658 21.9877 33.0777 22.2758C32.7896 22.5639 32.4335 22.7075 32.0094 22.7065C31.8093 22.7065 31.6342 22.6625 31.4842 22.5744C31.3341 22.4864 31.1841 22.3804 31.034 22.2563C30.7589 22.0062 30.4463 21.8187 30.0962 21.6936C29.746 21.5686 29.3834 21.5061 29.0083 21.5061C28.1829 21.5061 27.4762 21.8002 26.888 22.3884C26.2998 22.9766 26.0062 23.6828 26.0072 24.5072C26.0082 25.3315 26.3023 26.0382 26.8895 26.6274C27.4767 27.2166 28.1829 27.5103 29.0083 27.5083C29.3834 27.5083 29.746 27.4457 30.0962 27.3207C30.4463 27.1956 30.7589 27.0081 31.034 26.758C31.159 26.6329 31.3031 26.5264 31.4662 26.4384C31.6292 26.3503 31.8103 26.3068 32.0094 26.3078C32.4345 26.3078 32.7911 26.4519 33.0792 26.74C33.3673 27.0281 33.5109 27.3842 33.5099 27.8084V33.5105C33.5099 33.9356 33.3658 34.2922 33.0777 34.5803C32.7896 34.8684 32.4335 35.012 32.0094 35.011H8.00055C7.57539 35.011 7.21926 34.8669 6.93216 34.5788C6.64505 34.2907 6.501 33.9346 6.5 33.5105V27.8084ZM9.5011 32.0099H30.5088V30.2843C30.2587 30.3593 30.0146 30.4158 29.7765 30.4538C29.5384 30.4918 29.2824 30.5104 29.0083 30.5094C27.3576 30.5094 25.9446 29.9216 24.7692 28.7462C23.5938 27.5708 23.0061 26.1578 23.0061 24.5072C23.0061 22.8565 23.5938 21.4435 24.7692 20.2681C25.9446 19.0927 27.3576 18.505 29.0083 18.505C29.2834 18.505 29.5399 18.524 29.778 18.562C30.0161 18.6 30.2597 18.656 30.5088 18.73V17.0044H23.6813C23.2561 17.0044 22.9 16.8669 22.6129 16.5918C22.3258 16.3167 22.1817 15.979 22.1807 15.5789C22.1807 15.3788 22.2123 15.1722 22.2753 14.9592C22.3383 14.7461 22.4569 14.5775 22.6309 14.4535C23.0561 14.1534 23.3502 13.7592 23.5132 13.271C23.6763 12.7829 23.7573 12.2767 23.7563 11.7525C23.7563 10.7021 23.3937 9.81427 22.6684 9.089C21.9432 8.36373 21.0553 8.0011 20.005 8.0011C18.9546 8.0011 18.0667 8.36373 17.3415 9.089C16.6162 9.81427 16.2536 10.7021 16.2536 11.7525C16.2536 12.2777 16.3351 12.7844 16.4982 13.2725C16.6612 13.7607 16.9548 14.1544 17.379 14.4535C17.5541 14.5785 17.6731 14.7351 17.7361 14.9231C17.7991 15.1112 17.8302 15.3048 17.8292 15.5039C17.8292 15.929 17.6851 16.2856 17.397 16.5737C17.1089 16.8618 16.7528 17.0054 16.3286 17.0044H9.5011V18.73C9.75119 18.655 9.99528 18.599 10.2334 18.562C10.4715 18.525 10.7275 18.506 11.0017 18.505C12.6523 18.505 14.0653 19.0927 15.2407 20.2681C16.4161 21.4435 17.0039 22.8565 17.0039 24.5072C17.0039 26.1578 16.4161 27.5708 15.2407 28.7462C14.0653 29.9216 12.6523 30.5094 11.0017 30.5094C10.7265 30.5094 10.47 30.4903 10.2319 30.4523C9.99378 30.4143 9.75019 30.3583 9.5011 30.2843V32.0099Z" fill="black"/>
</svg>
