<svg width="40" height="40" viewBox="0 0 40 40" fill="none" xmlns="http://www.w3.org/2000/svg">
<rect x="1" y="1" width="38" height="38" rx="12" fill="white" stroke="black" stroke-width="2"/>
<path d="M25.8314 4.23438C25.4797 5.60667 25.135 6.95576 24.7833 8.28867C21.597 8.80003 18.4177 8.80074 15.2314 8.28867C14.8797 6.95576 14.5351 5.60667 14.1834 4.23438C18.0449 5.82261 21.9698 5.82261 25.8314 4.23438ZM27.0482 4.55723L29.4679 7.78927C28.4831 14.5593 26.6543 22.1488 24.0167 29.0983C23.264 28.2261 22.2441 27.6001 21.0765 27.3609C23.0671 19.5322 25.0577 12.4281 27.0482 4.55723ZM12.9665 4.55723C14.9571 12.4281 16.9477 19.5322 18.9382 27.3609C17.7706 27.6001 16.7507 28.2261 15.9981 29.0983C13.3604 22.1488 11.5316 14.5593 10.5469 7.78927L12.9665 4.55723ZM20.0074 28.5144C22.2301 28.5144 24.0167 30.301 24.0167 32.5237C24.0167 34.7464 22.2301 36.533 20.0074 36.533C17.7847 36.533 15.9981 34.7464 15.9981 32.5237C15.9981 30.301 17.7847 28.5144 20.0074 28.5144Z" fill="black"/>
</svg>
