<svg width="40" height="40" viewBox="0 0 40 40" fill="none" xmlns="http://www.w3.org/2000/svg">
<rect x="1" y="1" width="38" height="38" rx="12" fill="white" stroke="black" stroke-width="2"/>
<path d="M21.9441 12.0149L22.5045 12.1815L26.4547 5.3446C27.0624 4.29797 28.4129 3.93784 29.4596 4.54556C30.5062 5.15328 30.8663 6.50378 30.2586 7.55041L26.3095 14.385L26.7361 14.7879L27.4946 17.5801C27.7733 18.613 27.6321 19.7142 27.1018 20.6435L18.5825 35.3931C18.3215 35.8492 17.9447 36.2283 17.4902 36.4919C17.0356 36.7555 16.5195 36.8944 15.994 36.8944H15.9918C15.4673 36.8944 14.9508 36.7537 14.4983 36.4881L9.25729 33.4495C8.91624 33.2541 8.61719 32.9931 8.37734 32.6817C8.13749 32.3703 7.96157 32.0145 7.8597 31.6348C7.75783 31.2552 7.73202 30.8591 7.78375 30.4695C7.83548 30.0798 7.96374 29.7042 8.16114 29.3643L16.6783 14.6135C16.943 14.1526 17.2971 13.7492 17.7197 13.4269C18.1423 13.1045 18.625 12.8698 19.1395 12.7363L21.9441 12.0149ZM21.9047 14.3457L19.7034 14.9185C19.4793 14.9763 19.269 15.0783 19.085 15.2186C18.901 15.359 18.747 15.5347 18.632 15.7355L10.1081 30.4964C10.0585 30.58 10.0262 30.6726 10.0131 30.7689C9.99998 30.8652 10.0064 30.9631 10.0319 31.0569C10.0574 31.1506 10.1015 31.2383 10.1616 31.3147C10.2217 31.3911 10.2965 31.4546 10.3816 31.5014L15.6339 34.5457C15.7174 34.5938 15.8096 34.6249 15.9052 34.6371C16.0007 34.6493 16.0978 34.6424 16.1907 34.6167C16.2836 34.591 16.3704 34.5472 16.4462 34.4876C16.522 34.4281 16.5852 34.3541 16.6321 34.27L25.1526 19.5124C25.2682 19.3095 25.3428 19.0858 25.3719 18.8541C25.4011 18.6224 25.3843 18.3872 25.3226 18.1619L24.7295 15.9798L23.4915 14.8149L21.9047 14.3457ZM29.0713 30.1825C29.1163 29.9851 29.1388 29.7814 29.1388 29.5714C29.1388 29.0252 28.9798 28.4909 28.6812 28.0336C28.3827 27.5763 27.9575 27.2158 27.4576 26.996C26.9577 26.7762 26.4045 26.7067 25.8658 26.7959C25.327 26.8851 24.8258 27.1292 24.4234 27.4983L29.0713 30.1825ZM26.3253 32.3849C27.0591 32.3849 27.7264 32.1035 28.2272 31.6444L23.5793 28.9603C23.5343 29.1576 23.5118 29.3613 23.5118 29.5714C23.5118 30.3176 23.8082 31.0332 24.3358 31.5608C24.8635 32.0885 25.5791 32.3849 26.3253 32.3849Z" fill="black"/>
</svg>
