<svg width="40" height="40" viewBox="0 0 40 40" fill="none" xmlns="http://www.w3.org/2000/svg">
<rect x="1" y="1" width="38" height="38" rx="12" fill="white" stroke="black" stroke-width="2"/>
<path fill-rule="evenodd" clip-rule="evenodd" d="M27.5093 8C28.6542 8 29.6011 8.65124 30.2943 9.33549C31.0161 10.0452 31.6778 10.9996 32.266 12.0515C33.447 14.1613 34.4749 16.9178 35.1546 19.6413C35.8298 22.3438 36.2035 25.1663 35.9649 27.3856C35.7248 29.6139 34.5769 32.0088 32.011 32.0088C29.7961 32.0088 28.0315 30.8684 26.588 29.7115L26.0613 29.2778L25.323 28.6551L24.6568 28.1029C23.1277 26.8649 21.7697 26.0066 20.0066 26.0066C18.2434 26.0066 16.8854 26.8649 15.3563 28.1029L14.6901 28.6551L13.9518 29.2778L13.4266 29.7115C11.9801 30.8684 10.2155 32.0088 8.00215 32.0088C5.43471 32.0088 4.28679 29.6139 4.0482 27.3856C3.81111 25.1648 4.18325 22.3438 4.8585 19.6413C5.53825 16.9178 6.56612 14.1613 7.74706 12.05C8.33527 10.9996 8.99701 10.0452 9.71878 9.33399C10.412 8.65124 11.3589 8 12.5038 8C13.2766 8 14.0314 8.18457 14.7741 8.40515L15.6625 8.67675C15.8105 8.72277 15.9581 8.76628 16.1051 8.8073C17.4031 9.17943 18.7311 9.50055 20.0066 9.50055C21.282 9.50055 22.61 9.17943 23.908 8.8073L25.236 8.40665C25.9832 8.18607 26.744 8 27.5093 8ZM27.5093 11.0011C26.9346 11.0011 26.3344 11.1752 25.7522 11.3657L25.0649 11.5923L24.7333 11.6944C23.4053 12.0725 21.7322 12.5017 20.0066 12.5017C18.2809 12.5017 16.6078 12.0725 15.2798 11.6944L14.9497 11.5923L14.2609 11.3657C13.6787 11.1737 13.0785 11.0011 12.5038 11.0011C11.8766 11.1181 11.3139 11.8789 10.8892 12.5842L10.6521 12.9968L10.367 13.516C9.34364 15.3437 8.4013 17.8376 7.77107 20.369C7.17835 22.7339 6.89024 24.9997 6.99978 26.6863L7.0388 27.126L7.06881 27.3901L7.11382 27.7022C7.21736 28.3039 7.44094 29.0077 8.00215 29.0077C9.2206 29.0077 10.238 28.4015 11.5029 27.3961L12.1077 26.9039L13.2481 25.9496L13.7643 25.5294C15.3608 24.2645 17.3581 23.0055 20.0066 23.0055C22.655 23.0055 24.6523 24.266 26.2488 25.5294L26.7665 25.9496L27.9069 26.9039L28.5102 27.3961C29.7751 28.4015 30.791 29.0077 32.011 29.0077C32.5211 29.0077 32.7522 28.427 32.8678 27.8688L32.9248 27.5417L32.9803 27.066C33.1649 25.3464 32.8798 22.917 32.2435 20.369C31.6643 18.0492 30.824 15.7593 29.8997 13.9857L29.361 12.9953L29.1239 12.5857C28.6992 11.8789 28.1365 11.1181 27.5093 11.0011ZM14.7546 14.0022C15.7496 14.0022 16.7037 14.3974 17.4072 15.101C18.1108 15.8045 18.506 16.7586 18.506 17.7536C18.506 18.7485 18.1108 19.7027 17.4072 20.4062C16.7037 21.1097 15.7496 21.505 14.7546 21.505C13.7597 21.505 12.8055 21.1097 12.102 20.4062C11.3985 19.7027 11.0032 18.7485 11.0032 17.7536C11.0032 16.7586 11.3985 15.8045 12.102 15.101C12.8055 14.3974 13.7597 14.0022 14.7546 14.0022ZM25.2585 14.0022C25.626 14.0022 25.9807 14.1372 26.2554 14.3814C26.5301 14.6256 26.7055 14.9622 26.7485 15.3272L26.759 15.5028V16.253H27.5093C27.8918 16.2534 28.2596 16.3999 28.5377 16.6624C28.8158 16.925 28.9832 17.2838 29.0056 17.6656C29.028 18.0474 28.9038 18.4234 28.6583 18.7167C28.4128 19.01 28.0646 19.1984 27.6849 19.2436L27.5093 19.2541H26.759V20.0044C26.7586 20.3869 26.6122 20.7547 26.3496 21.0328C26.0871 21.3109 25.7282 21.4783 25.3464 21.5007C24.9646 21.5231 24.5887 21.3989 24.2954 21.1534C24.0021 20.9079 23.8136 20.5597 23.7684 20.18L23.7579 20.0044V19.2541H23.0077C22.6252 19.2537 22.2573 19.1073 21.9792 18.8447C21.7011 18.5822 21.5338 18.2233 21.5113 17.8415C21.4889 17.4597 21.6132 17.0838 21.8586 16.7905C22.1041 16.4972 22.4523 16.3087 22.8321 16.2635L23.0077 16.253H23.7579V15.5028C23.7579 15.1048 23.916 14.7231 24.1974 14.4417C24.4788 14.1603 24.8605 14.0022 25.2585 14.0022ZM14.7546 17.0033C14.5556 17.0033 14.3648 17.0823 14.2241 17.2231C14.0834 17.3638 14.0043 17.5546 14.0043 17.7536C14.0043 17.9526 14.0834 18.1434 14.2241 18.2841C14.3648 18.4248 14.5556 18.5039 14.7546 18.5039C14.9536 18.5039 15.1444 18.4248 15.2852 18.2841C15.4259 18.1434 15.5049 17.9526 15.5049 17.7536C15.5049 17.5546 15.4259 17.3638 15.2852 17.2231C15.1444 17.0823 14.9536 17.0033 14.7546 17.0033Z" fill="black"/>
</svg>
