<svg width="40" height="40" viewBox="0 0 40 40" fill="none" xmlns="http://www.w3.org/2000/svg">
<rect x="1" y="1" width="38" height="38" rx="12" fill="white" stroke="black" stroke-width="2"/>
<path fill-rule="evenodd" clip-rule="evenodd" d="M9.5 10.6693C9.5 10.0504 9.74583 9.45694 10.1834 9.01935C10.621 8.58177 11.2145 8.33594 11.8333 8.33594H14.1667C14.5913 8.33594 14.9903 8.4491 15.3333 8.6486C15.688 8.44379 16.0904 8.33596 16.5 8.33594H18.8333C19.6815 8.33594 20.4247 8.7886 20.833 9.46644C21.078 9.27044 21.365 9.1211 21.687 9.03477L23.941 8.4316C24.237 8.3522 24.5457 8.33189 24.8496 8.37183C25.1534 8.41177 25.4465 8.51117 25.7119 8.66436C25.9773 8.81755 26.21 9.02153 26.3965 9.26464C26.5831 9.50776 26.72 9.78525 26.7993 10.0813L31.6293 28.1121C31.7087 28.4081 31.729 28.7168 31.6891 29.0207C31.6492 29.3245 31.5498 29.6176 31.3966 29.883C31.2434 30.1484 31.0394 30.3811 30.7963 30.5677C30.5532 30.7542 30.2757 30.8911 29.9797 30.9704L27.7257 31.5736C27.4297 31.653 27.1209 31.6733 26.8171 31.6334C26.5132 31.5934 26.2202 31.494 25.9548 31.3409C25.6894 31.1877 25.4567 30.9837 25.2701 30.7406C25.0835 30.4974 24.9467 30.22 24.8673 29.9239L21.1667 16.1094V29.3359C21.1667 29.9548 20.9208 30.5483 20.4832 30.9859C20.0457 31.4234 19.4522 31.6693 18.8333 31.6693H16.5C16.0904 31.6693 15.688 31.5614 15.3333 31.3566C14.9786 31.5614 14.5763 31.6693 14.1667 31.6693H11.8333C11.2145 31.6693 10.621 31.4234 10.1834 30.9859C9.74583 30.5483 9.5 29.9548 9.5 29.3359V10.6693ZM11.8333 10.6693H14.1667V29.3359H11.8333V10.6693ZM18.8333 29.3359H16.5V10.6693H18.8333V29.3359ZM22.2913 11.2888L24.5442 10.6856L29.3765 28.7164L27.1225 29.3196L22.2913 11.2888Z" fill="black"/>
</svg>
