<svg width="40" height="40" viewBox="0 0 40 40" fill="none" xmlns="http://www.w3.org/2000/svg">
<rect x="1" y="1" width="38" height="38" rx="12" fill="white" stroke="black" stroke-width="2"/>
<path d="M8.0011 32.0088C7.1758 32.0088 6.46954 31.7152 5.88232 31.128C5.29511 30.5408 5.001 29.834 5 29.0077V11.0011C5 10.1758 5.29411 9.46954 5.88232 8.88232C6.47054 8.29511 7.1768 8.001 8.0011 8H30.5094C30.9345 8 31.2911 8.14405 31.5792 8.43216C31.8673 8.72026 32.0109 9.07639 32.0099 9.50055C32.0089 9.92471 31.8648 10.2813 31.5777 10.5704C31.2906 10.8595 30.9345 11.0031 30.5094 11.0011H8.0011V29.0077H11.0022C11.4274 29.0077 11.784 29.1518 12.0721 29.4399C12.3602 29.728 12.5038 30.0841 12.5028 30.5083C12.5017 30.9324 12.3577 31.289 12.0706 31.5781C11.7835 31.8672 11.4274 32.0108 11.0022 32.0088H8.0011ZM18.505 28.2574C19.1302 28.2574 19.6619 28.0388 20.1 27.6017C20.5382 27.1645 20.7568 26.6328 20.7558 26.0066C20.7548 25.3804 20.5362 24.8492 20.1 24.413C19.6639 23.9769 19.1322 23.7578 18.505 23.7558C17.8777 23.7538 17.3465 23.9729 16.9114 24.413C16.4762 24.8532 16.2571 25.3844 16.2541 26.0066C16.2511 26.6288 16.4702 27.1605 16.9114 27.6017C17.3525 28.0428 17.8837 28.2614 18.505 28.2574ZM33.5105 32.0088H26.0077C25.5825 32.0088 25.2264 31.8647 24.9393 31.5766C24.6522 31.2885 24.5082 30.9324 24.5072 30.5083V17.0033C24.5072 16.5781 24.6512 16.222 24.9393 15.9349C25.2274 15.6478 25.5835 15.5038 26.0077 15.5028H33.5105C33.9356 15.5028 34.2922 15.6468 34.5803 15.9349C34.8684 16.223 35.012 16.5791 35.011 17.0033V30.5083C35.011 30.9334 34.8669 31.29 34.5788 31.5781C34.2907 31.8662 33.9346 32.0098 33.5105 32.0088ZM27.5083 29.0077H32.0099V18.5039H27.5083V29.0077ZM15.5039 30.5083V29.3453C15.0287 28.9202 14.66 28.42 14.3979 27.8448C14.1358 27.2696 14.0043 26.6568 14.0033 26.0066C14.0023 25.3564 14.1338 24.7436 14.3979 24.1684C14.662 23.5932 15.0307 23.093 15.5039 22.6679V21.505C15.5039 21.0798 15.6479 20.7237 15.936 20.4366C16.2241 20.1495 16.5802 20.0054 17.0044 20.0044H20.0055C20.4307 20.0044 20.7873 20.1485 21.0754 20.4366C21.3635 20.7247 21.5071 21.0808 21.5061 21.505V22.6679C21.9812 23.093 22.3504 23.5932 22.6135 24.1684C22.8766 24.7436 23.0076 25.3564 23.0066 26.0066C23.0056 26.6568 22.8746 27.2696 22.6135 27.8448C22.3524 28.42 21.9832 28.9202 21.5061 29.3453V30.5083C21.5061 30.9334 21.362 31.29 21.0739 31.5781C20.7858 31.8662 20.4297 32.0098 20.0055 32.0088H17.0044C16.5792 32.0088 16.2231 31.8647 15.936 31.5766C15.6489 31.2885 15.5049 30.9324 15.5039 30.5083Z" fill="black"/>
</svg>
