<svg width="32" height="32" viewBox="0 0 32 32" fill="none" xmlns="http://www.w3.org/2000/svg">
<path d="M9.34375 16.0011C9.34375 15.7359 9.44911 15.4815 9.63664 15.294C9.82418 15.1064 10.0785 15.0011 10.3438 15.0011H15.0011V10.3438C15.0011 10.0785 15.1064 9.82418 15.294 9.63664C15.4815 9.44911 15.7359 9.34375 16.0011 9.34375C16.2663 9.34375 16.5207 9.44911 16.7082 9.63664C16.8957 9.82418 17.0011 10.0785 17.0011 10.3438V15.0011H21.6584C21.9236 15.0011 22.178 15.1064 22.3655 15.294C22.5531 15.4815 22.6584 15.7359 22.6584 16.0011C22.6584 16.2663 22.5531 16.5207 22.3655 16.7082C22.178 16.8957 21.9236 17.0011 21.6584 17.0011H17.0011V21.6584C17.0011 21.9236 16.8957 22.178 16.7082 22.3655C16.5207 22.5531 16.2663 22.6584 16.0011 22.6584C15.7359 22.6584 15.4815 22.5531 15.294 22.3655C15.1064 22.178 15.0011 21.9236 15.0011 21.6584V17.0011H10.3438C10.0785 17.0011 9.82418 16.8957 9.63664 16.7082C9.44911 16.5207 9.34375 16.2663 9.34375 16.0011Z" fill="#2D3A38"/>
<path fill-rule="evenodd" clip-rule="evenodd" d="M9.75947 5.02475C13.9094 4.56467 18.0975 4.56467 22.2475 5.02475C24.6835 5.29675 26.6501 7.21541 26.9355 9.66475C27.4288 13.8741 27.4288 18.1261 26.9355 22.3354C26.6488 24.7847 24.6821 26.7021 22.2475 26.9754C18.0975 27.4355 13.9094 27.4355 9.75947 26.9754C7.32347 26.7021 5.3568 24.7847 5.07147 22.3354C4.58034 18.1261 4.58034 13.874 5.07147 9.66475C5.3568 7.21541 7.3248 5.29675 9.75947 5.02475ZM22.0261 7.01141C18.0233 6.56771 13.9837 6.56771 9.9808 7.01141C9.23979 7.09362 8.54814 7.42324 8.01757 7.94703C7.48701 8.47082 7.14852 9.15819 7.0568 9.89808C6.58257 13.9527 6.58257 18.0488 7.0568 22.1034C7.1488 22.8431 7.48741 23.5301 8.01795 24.0536C8.54849 24.5772 9.23999 24.9066 9.9808 24.9887C13.9501 25.4314 18.0568 25.4314 22.0261 24.9887C22.7667 24.9063 23.4579 24.5768 23.9882 24.0533C24.5184 23.5298 24.8569 22.8429 24.9488 22.1034C25.423 18.0488 25.423 13.9527 24.9488 9.89808C24.8566 9.15887 24.518 8.47227 23.9878 7.94904C23.4575 7.42581 22.7665 7.09645 22.0261 7.01408" fill="#2D3A38"/>
</svg>
