<svg width="120" height="120" viewBox="0 0 120 120" fill="none" xmlns="http://www.w3.org/2000/svg">
<path d="M20 105C17.25 105 14.8967 104.022 12.94 102.065C10.9833 100.108 10.0033 97.7533 10 95V35C10 32.25 10.98 29.8967 12.94 27.94C14.9 25.9833 17.2533 25.0033 20 25H35.75L42 18.25C42.9167 17.25 44.0217 16.4583 45.315 15.875C46.6083 15.2917 47.9617 15 49.375 15H70.625C72.0417 15 73.3967 15.2917 74.69 15.875C75.9833 16.4583 77.0867 17.25 78 18.25L84.25 25H100C102.75 25 105.105 25.98 107.065 27.94C109.025 29.9 110.003 32.2533 110 35V95C110 97.75 109.022 100.105 107.065 102.065C105.108 104.025 102.753 105.003 100 105H20ZM35 85H85C86 85 86.75 84.5417 87.25 83.625C87.75 82.7083 87.6667 81.8333 87 81L73.25 62.625C72.75 61.9583 72.0833 61.625 71.25 61.625C70.4167 61.625 69.75 61.9583 69.25 62.625L56.25 80L47 67.625C46.5 66.9583 45.8333 66.625 45 66.625C44.1667 66.625 43.5 66.9583 43 67.625L33 81C32.3333 81.8333 32.25 82.7083 32.75 83.625C33.25 84.5417 34 85 35 85Z" fill="#2D3A38"/>
</svg>
