<svg width="32" height="32" viewBox="0 0 32 32" fill="none" xmlns="http://www.w3.org/2000/svg">
<path d="M25.3339 14.6649H10.4406L16.9472 8.15826C17.4672 7.63826 17.4672 6.78492 16.9472 6.26493C16.8239 6.14132 16.6773 6.04326 16.5161 5.97635C16.3548 5.90944 16.1818 5.875 16.0072 5.875C15.8326 5.875 15.6597 5.90944 15.4984 5.97635C15.3371 6.04326 15.1906 6.14132 15.0672 6.26493L6.28055 15.0516C6.15695 15.1749 6.05888 15.3215 5.99197 15.4828C5.92507 15.6441 5.89063 15.817 5.89062 15.9916C5.89063 16.1662 5.92507 16.3391 5.99197 16.5004C6.05888 16.6617 6.15695 16.8082 6.28055 16.9316L15.0672 25.7183C15.1907 25.8417 15.3372 25.9396 15.4985 26.0064C15.6598 26.0732 15.8326 26.1076 16.0072 26.1076C16.1818 26.1076 16.3547 26.0732 16.5159 26.0064C16.6772 25.9396 16.8238 25.8417 16.9472 25.7183C17.0707 25.5948 17.1686 25.4483 17.2354 25.287C17.3022 25.1257 17.3366 24.9528 17.3366 24.7783C17.3366 24.6037 17.3022 24.4308 17.2354 24.2695C17.1686 24.1082 17.0707 23.9617 16.9472 23.8383L10.4406 17.3316H25.3339C26.0672 17.3316 26.6672 16.7316 26.6672 15.9983C26.6672 15.2649 26.0672 14.6649 25.3339 14.6649Z" fill="#2D3A38"/>
</svg>
