<svg width="20" height="20" viewBox="0 0 20 20" fill="none" xmlns="http://www.w3.org/2000/svg">
<path d="M16.6641 1.66406H3.33073C2.41406 1.66406 1.6724 2.41406 1.6724 3.33073L1.66406 18.3307L4.9974 14.9974H16.6641C17.5807 14.9974 18.3307 14.2474 18.3307 13.3307V3.33073C18.3307 2.41406 17.5807 1.66406 16.6641 1.66406ZM16.6641 13.3307H4.30573L3.81406 13.8224L3.33073 14.3057V3.33073H16.6641V13.3307ZM8.7474 11.6641H14.9974V9.9974H10.4141L8.7474 11.6641ZM11.9641 6.7724C12.1307 6.60573 12.1307 6.3474 11.9641 6.18073L10.4891 4.70573C10.3224 4.53906 10.0641 4.53906 9.8974 4.70573L4.9974 9.60573V11.6641H7.05573L11.9641 6.7724Z" fill="white"/>
</svg>
