<svg width="20" height="20" viewBox="0 0 20 20" fill="none" xmlns="http://www.w3.org/2000/svg">
<path d="M8.66406 15H10.6641V9H8.66406V15ZM9.66406 7C9.9474 7 10.1851 6.904 10.3771 6.712C10.5691 6.52 10.6647 6.28267 10.6641 6C10.6634 5.71733 10.5674 5.48 10.3761 5.288C10.1847 5.096 9.9474 5 9.66406 5C9.38073 5 9.1434 5.096 8.95206 5.288C8.76073 5.48 8.66473 5.71733 8.66406 6C8.6634 6.28267 8.7594 6.52033 8.95206 6.713C9.14473 6.90567 9.38206 7.00133 9.66406 7ZM9.66406 20C7.3474 19.4167 5.43473 18.0873 3.92606 16.012C2.4174 13.9367 1.6634 11.6327 1.66406 9.1V3L9.66406 0L17.6641 3V9.1C17.6641 11.6333 16.9101 13.9377 15.4021 16.013C13.8941 18.0883 11.9814 19.4173 9.66406 20ZM9.66406 17.9C11.3974 17.35 12.8307 16.25 13.9641 14.6C15.0974 12.95 15.6641 11.1167 15.6641 9.1V4.375L9.66406 2.125L3.66406 4.375V9.1C3.66406 11.1167 4.23073 12.95 5.36406 14.6C6.4974 16.25 7.93073 17.35 9.66406 17.9Z" fill="white"/>
</svg>
