<svg width="25" height="25" viewBox="0 0 25 25" fill="none" xmlns="http://www.w3.org/2000/svg">
<path d="M24.2554 20.2267L19.2376 15.2053C18.2708 14.2377 16.7025 14.2374 15.7352 15.2046V15.2046C14.7683 16.1716 14.7683 17.7394 15.7352 18.7064L20.7579 23.7291C21.3138 24.2849 22.2288 24.2849 22.7846 23.7291L24.2554 22.2583C24.8113 21.6975 24.8113 20.7776 24.2554 20.2267Z" fill="#B7B7B7"/>
<path d="M13.2208 14.5303C13.7274 15.037 14.5489 15.037 15.0556 14.5303V14.5303C15.5623 14.0236 15.5623 13.2022 15.0556 12.6955L14.8341 12.474C14.2832 11.9231 14.2248 11.0629 14.5436 10.3519C15.7488 7.66448 15.2518 4.39647 13.0461 2.1908C10.198 -0.657349 5.56915 -0.657349 2.71608 2.1908C-0.136986 5.03894 -0.132067 9.6678 2.71608 12.5209C4.92175 14.7265 8.18977 15.2235 10.8772 14.0183C11.5881 13.6995 12.4484 13.7579 12.9993 14.3089L13.2208 14.5303ZM4.13277 11.0845C2.06676 9.01848 2.06676 5.66859 4.13277 3.60749C6.19879 1.54148 9.54868 1.54148 11.6098 3.60749C13.6758 5.6735 13.6758 9.0234 11.6098 11.0845C9.54868 13.1505 6.19879 13.1505 4.13277 11.0845Z" fill="#B7B7B7"/>
</svg>
